HIERARCHY
ROOT Hips
{
	OFFSET	0.000000	0.000000	0.000000
	CHANNELS 6 Xposition Yposition Zposition Zrotation Xrotation Yrotation
	JOINT LeftUpLeg
	{
		OFFSET	10.400868	-0.616521	2.124034
		CHANNELS 3 Zrotation Xrotation Yrotation
		JOINT LeftLeg
		{
			OFFSET	0.352537	-41.535095	-2.050072
			CHANNELS 3 Zrotation Xrotation Yrotation
			JOINT LeftFoot
			{
				OFFSET	-0.352537	-41.565321	-3.489960
				CHANNELS 3 Zrotation Xrotation Yrotation
				JOINT LeftFootHeel
				{
					OFFSET	0.523297	-9.012733	-4.729048
					CHANNELS 3 Zrotation Xrotation Yrotation
					End Site
					{
						OFFSET	-1.845620	-0.000002	17.812028
					}
				}
			}
		}
	}
	JOINT RightUpLeg
	{
		OFFSET	-10.400868	-0.616521	2.124034
		CHANNELS 3 Zrotation Xrotation Yrotation
		JOINT RightLeg
		{
			OFFSET	-0.352537	-41.535095	-2.050072
			CHANNELS 3 Zrotation Xrotation Yrotation
			JOINT RightFoot
			{
				OFFSET	0.352537	-41.565321	-3.489960
				CHANNELS 3 Zrotation Xrotation Yrotation
				JOINT RightFootHeel
				{
					OFFSET	-0.523297	-9.012733	-4.729048
					CHANNELS 3 Zrotation Xrotation Yrotation
					End Site
					{
						OFFSET	1.845620	-0.000002	17.812028
					}
				}
			}
		}
	}
	JOINT Spine
	{
		OFFSET	0.000000	14.066495	0.622008
		CHANNELS 3 Zrotation Xrotation Yrotation
		JOINT Spine1
		{
			OFFSET	0.000000	11.326443	0.000000
			CHANNELS 3 Zrotation Xrotation Yrotation
			JOINT LeftShoulder
			{
				OFFSET	5.573420	28.820108	1.551455
				CHANNELS 3 Zrotation Xrotation Yrotation
				JOINT LeftArm
				{
					OFFSET	11.077346	-0.652064	-0.274831
					CHANNELS 3 Zrotation Xrotation Yrotation
					JOINT LeftForeArm
					{
						OFFSET	3.317875	-35.016692	0.191745
						CHANNELS 3 Zrotation Xrotation Yrotation
						JOINT LeftHand
						{
							OFFSET	0.521886	-23.143868	7.546822
							CHANNELS 3 Zrotation Xrotation Yrotation
							End Site
							{
								OFFSET	-0.335938	-11.014202	2.865907
							}
						}
					}
				}
			}
			JOINT RightShoulder
			{
				OFFSET	-5.573420	28.820108	1.551455
				CHANNELS 3 Zrotation Xrotation Yrotation
				JOINT RightArm
				{
					OFFSET	-11.077346	-0.652064	-0.274831
					CHANNELS 3 Zrotation Xrotation Yrotation
					JOINT RightForeArm
					{
						OFFSET	-3.317875	-35.016692	0.191745
						CHANNELS 3 Zrotation Xrotation Yrotation
						JOINT RightHand
						{
							OFFSET	-0.521884	-23.143868	7.546822
							CHANNELS 3 Zrotation Xrotation Yrotation
							End Site
							{
								OFFSET	0.335938	-11.014202	2.865907
							}
						}
					}
				}
			}
			JOINT Neck
			{
				OFFSET	0.000000	31.425642	0.514363
				CHANNELS 3 Zrotation Xrotation Yrotation
				JOINT Head
				{
					OFFSET	0.000000	11.901169	2.272744
					CHANNELS 3 Zrotation Xrotation Yrotation
					End Site
					{
						OFFSET	0.000000	13.820749	0.378790
					}
				}
			}
		}
	}
}
MOTION
Frames:     9
Frame Time: 0.016667
-1.091265	84.512331	3.762544	6.949502	0.445939	42.401833	16.725168	1.419948	15.941798	-2.497646	34.323673	1.615035	-21.277676	-26.306353	-8.104345	0.	0.	0.	-40.391167	-29.357225	-23.624809	39.612057	57.898735	-33.710838	1.587541	-10.091978	-10.423347	0.	0.	0.	-0.000001	-0.000000	-0.000002	2.615061	18.125099	-3.373052	4.284359	0.441866	2.852852	32.544014	-3.378439	51.004704	11.501697	-129.314682	27.374445	2.557450	-18.284672	6.560389	-0.688138	-1.533938	5.652877	-8.526141	-16.903978	-16.494127	7.320681	-62.034531	5.647358	9.186910	-11.873249	-10.662860	-0.970331	4.219552	2.352747	0.988889	-7.452116	-45.914677	
-0.930417	84.203880	3.827889	6.977149	0.821567	42.364262	16.515411	0.864673	15.910429	-2.452608	35.277401	1.446464	-21.527954	-26.934965	-8.176830	0.	0.	0.	-40.044506	-29.708025	-23.106361	41.844765	58.080902	-36.715073	0.557466	-11.122219	-11.969930	0.	0.	0.	-0.000001	-0.000000	0.000000	1.967853	17.622530	-3.214988	4.399135	0.657499	3.177205	32.633820	-3.469533	50.898724	11.598324	-129.705246	27.686928	3.148168	-18.194050	6.732046	-0.424588	-1.141077	6.055436	-7.498125	-16.240513	-16.186108	7.080499	-62.759789	6.073449	8.868046	-12.462068	-10.544118	-1.025712	4.300680	2.453043	1.506318	-7.190228	-45.863823	
-0.844025	83.808498	3.950328	7.015682	1.338225	42.285469	16.557592	0.251757	16.151838	-2.832641	36.361359	1.412577	-21.662140	-27.562637	-8.521512	0.	0.	0.	-40.265419	-30.502871	-22.946079	43.687115	58.337738	-40.100063	0.244763	-11.852151	-12.759078	0.	0.	0.	0.000001	0.000001	0.000005	1.160811	17.105036	-2.946360	4.500531	0.801473	3.494603	32.826000	-3.515760	50.969231	11.621849	-130.156891	27.865145	3.593150	-18.113316	6.610780	-0.175748	-0.771284	6.464231	-6.459395	-15.517669	-16.116385	7.682285	-63.655937	7.410767	7.995420	-13.097035	-10.362845	-0.850210	4.393364	2.456347	1.826502	-7.035892	-45.745884	
-0.858500	83.363050	4.286647	6.997588	1.521470	42.262764	16.998180	-0.129464	16.728230	-2.705889	37.484119	1.099342	-22.160116	-28.099798	-9.283435	0.	0.	0.	-40.614216	-31.260843	-23.225346	45.345779	59.488354	-43.354179	0.366059	-12.349785	-12.791138	0.	0.	0.	-0.000000	0.000000	0.000002	0.581183	16.933132	-2.660376	4.635582	0.766490	3.848112	33.213486	-3.535695	51.074242	11.502074	-130.505798	27.595495	4.053157	-18.036476	6.336439	0.086351	-0.533934	6.839745	-5.348195	-14.730755	-15.878991	7.996991	-64.816216	8.694835	6.931100	-13.719668	-10.224965	-0.854086	4.247035	2.480211	2.264440	-6.813905	-45.683022	
-0.948877	82.173287	6.131738	6.997138	2.446378	42.188053	17.629478	-0.384079	17.194622	-2.386214	38.688076	0.334282	-22.557720	-28.846638	-9.709727	0.	0.	0.	-41.187748	-31.912464	-24.025646	47.600964	60.966633	-46.444847	-0.166984	-12.537088	-12.704015	0.	0.	0.	0.000000	-0.000001	-0.000008	0.113129	17.066103	-2.446069	4.866911	0.653742	4.265383	33.670082	-3.504713	51.277077	11.316343	-130.743301	27.157949	4.598085	-18.046837	6.358882	0.427032	-0.383781	7.270602	-4.202718	-13.981751	-15.141922	6.823959	-66.267151	8.697805	6.282257	-14.200077	-9.727872	-0.832509	4.148113	2.622862	2.594050	-6.709319	-45.738052	
-1.164026	81.640432	6.687431	7.199327	2.156234	42.331764	18.259758	-0.419243	17.266439	-1.968140	39.847313	-0.595555	-22.856010	-29.670567	-9.769676	0.	0.	0.	-42.063122	-32.315754	-24.995253	51.305229	62.446575	-50.029060	-1.387904	-13.000506	-12.820369	0.	0.	0.	-0.000001	-0.000000	-0.000004	-0.361381	17.642706	-2.322182	5.181215	0.499637	4.718415	34.127216	-3.467810	51.600376	11.092570	-130.804871	26.852573	5.287256	-18.144211	6.832153	0.863364	-0.395204	7.761396	-3.263592	-13.255579	-14.312472	5.281471	-67.869499	8.065168	5.528851	-14.680691	-8.946367	-0.750114	4.054380	2.915349	2.819164	-6.653994	-45.974224	
-1.452254	81.180557	7.214671	7.602947	1.763842	42.467098	18.692341	-0.211067	17.012402	-1.581640	40.704269	-1.180812	-23.075903	-30.303993	-9.754192	0.	0.	0.	-43.039627	-32.738724	-25.724375	55.884575	63.724827	-54.035984	-2.125008	-14.747140	-13.512815	0.	0.	0.	0.000001	-0.000000	-0.000001	-0.913403	18.466457	-2.048891	5.428240	0.484119	5.041798	34.669125	-3.625327	51.932705	10.719910	-130.495087	26.461720	6.234971	-18.228878	7.467175	1.199951	-0.361304	8.175040	-2.501195	-12.574568	-13.816739	5.063237	-69.876114	8.305747	4.575845	-14.343481	-9.115339	-0.648450	3.902862	3.152386	3.052000	-6.380115	-46.315659	
-1.757184	80.766169	7.769114	8.056909	1.291404	42.604031	19.075222	0.155326	16.472582	-1.344926	41.366692	-1.699450	-23.016062	-31.016788	-9.388666	0.	0.	0.	-44.136055	-33.363995	-26.427231	60.624855	64.883133	-58.443485	-2.945229	-15.660358	-14.102780	0.	0.	0.	-0.000001	-0.000000	0.000002	-1.461204	19.369122	-1.465370	5.594450	0.401725	5.157630	35.377033	-3.816520	51.922676	9.867528	-129.608429	25.346443	7.300521	-18.194000	8.065155	1.330159	-0.245390	8.338650	-1.747522	-11.920513	-13.606640	5.507754	-72.323273	9.271617	3.432817	-13.428008	-9.698615	-0.494802	3.622968	3.213758	3.342350	-6.093695	-46.875454	
-2.076524	80.421543	8.435398	8.461968	0.727346	42.931278	19.486670	0.621603	15.706228	-0.983671	41.744217	-2.434942	-22.816830	-31.781881	-8.763711	0.	0.	0.	-45.502663	-34.055820	-27.494982	64.960968	66.149956	-62.555935	-3.195763	-15.644750	-14.528685	0.	0.	0.	0.000000	0.000000	-0.000002	-1.560872	20.174921	-1.318626	5.431698	0.371337	5.496175	36.237122	-3.894725	51.297718	7.778881	-127.972557	22.494604	8.130753	-18.065132	8.689937	0.959992	0.040285	8.665701	-1.222613	-11.356306	-13.935331	7.288735	-74.907097	11.625455	2.442159	-12.334548	-10.078314	-0.652258	3.233504	3.429171	3.556026	-5.090406	-47.326538	
